<svg width="91" height="53" viewBox="0 0 91 53" fill="none" xmlns="http://www.w3.org/2000/svg">
    <path d="M47.8 15.298C47.596 14.992 47.188 14.584 46.372 14.584C45.148 14.584 41.374 15.604 32.296 24.886C32.194 25.039 32.041 25.141 31.888 25.294C33.775 20.602 35.458 14.992 35.458 11.218C35.458 9.994 35.305 9.07601 34.948 8.36201C34.489 7.54601 33.775 7.13801 32.857 7.13801C29.389 7.13801 23.677 12.595 19.087 17.695C22.249 7.852 20.77 3.36401 18.679 1.273C17.71 0.304005 16.435 0.202003 15.058 0.967006C11.998 2.752 8.98903 8.923 9.55003 11.167C9.75403 11.83 10.213 12.187 10.876 12.187C11.182 12.187 11.386 11.932 11.386 11.626C11.386 11.32 11.182 11.065 10.876 11.065C10.774 11.065 10.672 11.065 10.621 10.861C10.213 9.22901 12.865 3.517 15.619 1.93601C16.843 1.22201 17.506 1.68101 17.914 2.089C20.668 4.843 20.413 11.116 17.098 19.939C15.772 21.52 14.548 22.948 13.681 24.121C7.35703 32.026 0.676025 42.073 0.676025 45.133C0.676025 45.49 0.727025 45.796 0.931026 46C1.03303 46.153 1.33903 46.408 1.79803 46.408C3.48103 46.408 6.84703 41.665 8.68303 38.911C11.845 34.015 14.956 28.201 17.149 22.897C17.506 22.081 17.812 21.265 18.067 20.5C18.322 20.194 18.577 19.939 18.832 19.684C25.156 12.391 30.307 8.26001 32.857 8.26001C33.367 8.26001 33.724 8.464 33.979 8.923C34.234 9.43301 34.387 10.198 34.387 11.218C34.387 14.737 32.653 20.959 29.95 27.13C29.848 27.334 29.797 27.487 29.695 27.64C26.329 31.363 22.708 35.851 22.708 37.279C22.708 37.585 22.81 37.789 22.912 37.891C23.014 37.993 23.218 38.146 23.524 38.146C24.493 38.146 25.666 37.075 27.145 34.882C28.216 33.199 29.491 30.853 30.664 28.252C31.633 27.181 32.704 26.059 33.826 24.886C39.589 19.123 44.281 15.706 46.372 15.706C46.729 15.706 46.831 15.808 46.882 15.859C47.647 17.134 44.893 23.101 42.394 28.354C38.416 36.82 33.877 46.459 36.376 50.386C37.141 51.61 38.518 52.222 40.354 52.222C40.66 52.222 40.915 51.967 40.915 51.661C40.915 51.355 40.66 51.1 40.354 51.1C38.875 51.1 37.855 50.692 37.345 49.825C35.152 46.357 39.742 36.616 43.414 28.813C46.933 21.316 48.871 16.981 47.8 15.298ZM7.76503 38.299C4.39903 43.399 2.30803 45.286 1.79803 45.286C1.79803 45.286 1.79803 45.286 1.74703 45.286C1.74703 45.082 1.64503 43.96 4.29703 39.421C7.00003 34.78 11.335 28.66 15.823 23.203C13.63 28.252 10.723 33.709 7.76503 38.299ZM23.932 36.871C24.289 36.004 25.717 33.964 27.859 31.414C26.227 34.525 24.799 36.412 23.932 36.871Z" fill="#FEC17F"/>
    <path d="M61.1656 30.445C61.0126 30.19 60.6556 30.139 60.4006 30.343C58.9726 31.414 54.8416 34.219 53.2606 34.219C52.9546 34.219 52.8016 34.168 52.8016 34.117C52.6996 34.015 52.9036 33.403 53.0056 33.199C53.1586 32.689 53.3116 32.23 53.0566 31.873C52.9546 31.72 52.7506 31.567 52.3936 31.567C52.2916 31.567 52.1386 31.567 52.0366 31.669C50.1496 33.148 47.0896 35.188 46.1206 35.188C45.8656 35.188 45.6616 35.137 45.5596 35.035C45.4576 34.984 45.4066 34.831 45.4066 34.678C45.4066 32.944 48.7726 29.017 51.9856 29.017C54.0766 29.017 54.2806 29.68 54.2806 30.445C54.2806 30.7 54.5356 30.955 54.8416 30.955C55.1476 30.955 55.3516 30.7 55.3516 30.445C55.3516 27.895 52.8526 27.895 51.9856 27.895C48.1606 27.895 44.3356 32.23 44.3356 34.678C44.3356 35.29 44.5906 35.647 44.7946 35.851C45.1006 36.157 45.5596 36.31 46.1206 36.31C47.4466 36.31 50.2516 34.372 51.8326 33.25C51.6796 33.76 51.5776 34.321 51.9346 34.78C52.1896 35.137 52.6486 35.341 53.2606 35.341C55.5046 35.341 60.5026 31.618 61.0636 31.21C61.3186 31.057 61.3696 30.7 61.1656 30.445Z" fill="#FEC17F"/>
    <path d="M71.1114 30.496C68.9184 33.046 62.4414 39.727 59.1264 39.727C58.8714 39.727 58.7694 39.676 58.7184 39.574C58.6164 39.472 58.5144 39.217 58.5144 38.758C58.5144 37.075 59.7384 34.066 61.4214 30.802C61.5744 30.802 61.7274 30.751 61.8294 30.649C61.8804 30.598 64.9404 27.691 67.8984 24.58C74.1204 18.001 73.7124 16.981 73.5084 16.471C73.4064 16.216 73.1514 15.808 72.3864 15.808C69.5814 15.808 64.7364 23.101 63.3084 25.294C60.6054 29.578 57.4434 35.698 57.4434 38.758C57.4434 39.37 57.5454 39.88 57.8004 40.237C58.0044 40.492 58.4124 40.849 59.1264 40.849C63.6144 40.849 71.6214 31.618 71.9274 31.21C72.1314 30.955 72.0804 30.649 71.8764 30.445C71.6214 30.241 71.3154 30.241 71.1114 30.496ZM72.3864 16.93C72.4374 16.93 72.4374 16.93 72.4884 16.93C72.4374 18.052 68.3574 22.744 62.9514 28.048C66.2664 22.387 70.5504 16.93 72.3864 16.93Z" fill="#FEC17F"/>
    <path d="M78.6076 29.731C78.4036 29.527 78.0466 29.527 77.8426 29.731C76.0066 31.618 72.5386 34.576 71.0086 34.576C70.9576 34.576 70.9576 34.576 70.9576 34.576C70.6006 34.015 71.9776 30.904 73.9156 27.844C74.0686 27.589 73.9666 27.232 73.7116 27.079C73.4566 26.926 73.1506 26.977 72.9466 27.232C72.9466 27.283 72.0286 28.762 71.1616 30.445C69.5806 33.607 69.6826 34.627 69.9886 35.137C70.1926 35.494 70.5496 35.698 71.0086 35.698C73.5076 35.698 78.0976 31.057 78.6076 30.496C78.8626 30.292 78.8626 29.935 78.6076 29.731ZM74.3236 26.569C74.7316 26.569 75.0886 26.212 75.0886 25.804C75.0886 25.396 74.7316 25.039 74.3236 25.039C73.9156 25.039 73.5586 25.396 73.5586 25.804C73.5586 26.212 73.9156 26.569 74.3236 26.569Z" fill="#FEC17F"/>
    <path d="M90.3623 30.394C90.1583 30.19 89.8013 30.19 89.5973 30.394C89.5463 30.445 84.3443 35.953 80.8763 35.953C79.5503 35.953 78.5813 35.035 77.8673 34.219C81.3353 32.893 85.7723 29.17 86.0273 28.966C86.2313 28.762 86.2823 28.456 86.0783 28.201C85.8743 27.946 85.5173 27.946 85.3133 28.15C83.8343 29.323 80.2133 32.077 77.5613 33.148C81.0293 27.181 85.7213 19.378 89.2403 13.666C89.3933 13.411 89.3423 13.054 89.0873 12.901C88.8323 12.748 88.4753 12.85 88.3223 13.105C86.5883 15.859 80.6723 25.498 76.3883 32.944C76.2863 32.893 76.1333 32.842 75.9803 32.842C74.9093 32.842 74.5523 33.352 74.5523 33.811C74.5523 34.117 74.6543 34.321 74.8073 34.423C74.9603 34.627 75.2153 34.678 75.4193 34.729C73.2773 38.503 71.7473 41.41 71.7473 42.022C71.7473 42.328 71.9513 42.583 72.2573 42.583C72.5633 42.583 72.8183 42.328 72.8183 42.022C72.9203 41.461 74.4503 38.554 76.6943 34.627C76.7453 34.678 76.7963 34.729 76.7963 34.729C77.6633 35.647 78.8873 37.075 80.8763 37.075C84.8543 37.075 90.1583 31.414 90.4133 31.159C90.6173 30.955 90.6173 30.598 90.3623 30.394Z" fill="#FEC17F"/>
</svg>
